<?xml version="1.0" encoding="UTF-8" standalone="no"?>
<!-- Created with Inkscape (http://www.inkscape.org/) -->

<svg
   xmlns:dc="http://purl.org/dc/elements/1.1/"
   xmlns:cc="http://creativecommons.org/ns#"
   xmlns:rdf="http://www.w3.org/1999/02/22-rdf-syntax-ns#"
   xmlns:svg="http://www.w3.org/2000/svg"
   xmlns="http://www.w3.org/2000/svg"
   xmlns:sodipodi="http://sodipodi.sourceforge.net/DTD/sodipodi-0.dtd"
   xmlns:inkscape="http://www.inkscape.org/namespaces/inkscape"
   version="1.0"
   width="874.59973"
   height="874.59973"
   id="svg1354"
   sodipodi:docname="Wii.svg"
   inkscape:version="0.92.4 (5da689c313, 2019-01-14)">
  <metadata
     id="metadata8">
    <rdf:RDF>
      <cc:Work
         rdf:about="">
        <dc:format>image/svg+xml</dc:format>
        <dc:type
           rdf:resource="http://purl.org/dc/dcmitype/StillImage" />
        <dc:title></dc:title>
      </cc:Work>
    </rdf:RDF>
  </metadata>
  <sodipodi:namedview
     pagecolor="#ffffff"
     bordercolor="#666666"
     borderopacity="1"
     objecttolerance="10"
     gridtolerance="10"
     guidetolerance="10"
     inkscape:pageopacity="0"
     inkscape:pageshadow="2"
     inkscape:window-width="1920"
     inkscape:window-height="1017"
     id="namedview6"
     showgrid="false"
     fit-margin-top="228.29013"
     fit-margin-left="0"
     fit-margin-right="0"
     fit-margin-bottom="228.29013"
     inkscape:zoom="0.49997449"
     inkscape:cx="185.78718"
     inkscape:cy="71.291723"
     inkscape:window-x="-8"
     inkscape:window-y="-8"
     inkscape:window-maximized="1"
     inkscape:current-layer="svg1354"
     inkscape:pagecheckerboard="true" />
  <defs
     id="defs1357" />
  <path
     style="display:inline;fill:#999999"
     d="m 651.31055,228.29968 c -4.21199,0.0751 -8.33195,0.59364 -12.11914,1.58008 -23.74693,6.18529 -39.50074,29.95172 -35.51563,53.57813 3.27108,19.39316 19.2194,35.88264 38.48047,39.78515 12.56885,2.54658 29.29204,-0.70429 40.44531,-7.86132 20.11546,-12.90806 27.00951,-40.81008 15.36914,-62.19727 -3.38943,-6.2275 -13.45229,-15.86022 -20.07617,-19.2168 -7.60372,-3.85309 -17.31761,-5.83314 -26.58398,-5.66797 z m 170.99414,0.002 c -4.21113,0.0754 -8.32956,0.59259 -12.11328,1.57813 -18.31362,4.77009 -32.51353,20.34994 -35.60352,39.06055 -4.02833,24.39244 13.62536,49.249 38.56836,54.30273 12.56885,2.54658 29.29204,-0.70429 40.44531,-7.86132 20.23851,-12.98702 27.095,-41.49091 15.04688,-62.54884 -3.75146,-6.55687 -13.13161,-15.51026 -19.7793,-18.8789 -7.58673,-3.84449 -17.29996,-5.81822 -26.56445,-5.65235 z M 283.60742,248.3739 c -6.29303,0.008 -12.59411,0.51046 -16.4082,1.50391 -14.47774,3.77097 -26.67203,14.24115 -33.64844,28.89453 -5.17702,10.8739 -12.14311,36.19248 -53.16406,193.18555 l -17.27539,66.10937 -36.3418,-142.60937 C 106.78157,317.02216 90.115398,252.50503 89.732418,252.08679 c -0.38299,-0.41824 -20.73002,-0.64324 -45.21484,-0.5 L 0,251.84656 l 9.865234,35.5 c 65.79475,236.74464 84.567004,302.82811 89.761724,316 7.749392,19.64961 25.465512,36.48872 43.638672,41.47852 6.97351,1.9147 25.21296,1.8798 32.74609,-0.0625 20.88964,-5.386 36.73338,-22.96221 45.44727,-50.41602 4.03135,-12.70109 17.00489,-59.16239 41.63281,-149.09961 11.20532,-40.92003 20.62573,-73.72539 20.93359,-72.90039 0.30787,0.825 8.02907,28.95 17.15821,62.5 38.81027,142.6296 44.90438,163.62629 51.22656,176.5 3.86709,7.87441 6.12583,10.96242 13.20508,18.04102 9.06381,9.063 15.10702,12.69937 25.67187,15.45117 7.58632,1.976 24.22345,1.95784 31.875,-0.0352 18.31756,-4.7711 33.73766,-18.64796 42.91406,-38.61719 5.40224,-11.75608 24.58439,-78.39678 79.6875,-276.83984 11.53054,-41.525 21.16057,-76.0625 21.39844,-76.75 0.34184,-0.98801 -9.0461,-1.24904 -44.78711,-1.24414 l -45.21875,0.006 -36.5,142.99023 c -22.72418,89.02241 -36.77317,142.33093 -37.22461,141.24414 -0.39881,-0.9601 -9.99913,-37.29609 -21.33398,-80.74609 -33.64728,-128.98039 -42.65716,-162.14988 -46.84375,-172.45313 -6.86538,-16.89582 -19.33621,-28.39898 -35.29102,-32.55468 -3.77892,-0.98429 -10.06243,-1.47244 -16.35547,-1.46485 z m 328.04883,121.97266 v 136.5 136.5 h 42.5 42.5 v -136.5 -136.5 h -42.5 z m 171,0 v 136.5 136.5 h 42.5 42.5 v -136.5 -136.5 h -42.5 z"
     id="path1372"
     inkscape:connector-curvature="0" />
</svg>
